<svg width="73" height="55" viewBox="0 0 73 55" fill="none" xmlns="http://www.w3.org/2000/svg">
<path d="M36.4965 9.12183C37.1016 9.12183 37.682 9.36221 38.1099 9.79009C38.5378 10.218 38.7781 10.7983 38.7781 11.4034V18.2483C38.7781 18.8534 38.5378 19.4337 38.1099 19.8616C37.682 20.2895 37.1016 20.5299 36.4965 20.5299C35.8914 20.5299 35.3111 20.2895 34.8832 19.8616C34.4553 19.4337 34.2149 18.8534 34.2149 18.2483V11.4034C34.2149 10.7983 34.4553 10.218 34.8832 9.79009C35.3111 9.36221 35.8914 9.12183 36.4965 9.12183ZM17.0207 17.0253C17.4486 16.5976 18.0288 16.3573 18.6338 16.3573C19.2388 16.3573 19.819 16.5976 20.2469 17.0253L24.4222 21.1961C24.6344 21.4082 24.8026 21.6601 24.9175 21.9373C25.0323 22.2144 25.0913 22.5115 25.0913 22.8115C25.0913 23.1115 25.0323 23.4086 24.9175 23.6857C24.8026 23.9629 24.6344 24.2147 24.4222 24.4269C24.2101 24.639 23.9583 24.8073 23.6811 24.9221C23.4039 25.0369 23.1069 25.096 22.8069 25.096C22.5069 25.096 22.2098 25.0369 21.9326 24.9221C21.6554 24.8073 21.4036 24.639 21.1915 24.4269L17.0207 20.2515C16.593 19.8237 16.3527 19.2434 16.3527 18.6384C16.3527 18.0334 16.593 17.4532 17.0207 17.0253ZM9.11719 36.5012C9.11719 35.896 9.35757 35.3157 9.78546 34.8878C10.2133 34.4599 10.7937 34.2195 11.3988 34.2195H18.6361C19.2412 34.2195 19.8215 34.4599 20.2494 34.8878C20.6773 35.3157 20.9177 35.896 20.9177 36.5012C20.9177 37.1063 20.6773 37.6866 20.2494 38.1145C19.8215 38.5424 19.2412 38.7828 18.6361 38.7828H11.3988C10.7937 38.7828 10.2133 38.5424 9.78546 38.1145C9.35757 37.6866 9.11719 37.1063 9.11719 36.5012ZM52.4678 36.5012C52.4678 35.896 52.7082 35.3157 53.1361 34.8878C53.564 34.4599 54.1443 34.2195 54.7494 34.2195H61.5942C62.1994 34.2195 62.7797 34.4599 63.2076 34.8878C63.6355 35.3157 63.8759 35.896 63.8759 36.5012C63.8759 37.1063 63.6355 37.6866 63.2076 38.1145C62.7797 38.5424 62.1994 38.7828 61.5942 38.7828H54.7494C54.1443 38.7828 53.564 38.5424 53.1361 38.1145C52.7082 37.6866 52.4678 37.1063 52.4678 36.5012ZM55.9085 17.1257C55.5918 16.8122 55.1691 16.6289 54.7238 16.612C54.2786 16.5951 53.8431 16.7458 53.5037 17.0345L34.4294 33.3525C33.985 33.727 33.6241 34.1905 33.3701 34.7132C33.1161 35.2359 32.9746 35.8061 32.9549 36.3869C32.9351 36.9677 33.0375 37.5461 33.2553 38.0849C33.4732 38.6236 33.8017 39.1107 34.2196 39.5145C34.6375 39.9183 35.1356 40.2298 35.6815 40.4291C36.2274 40.6283 36.809 40.7107 37.3888 40.671C37.9686 40.6313 38.5336 40.4703 39.0472 40.1985C39.5609 39.9267 40.0117 39.5501 40.3707 39.0931L56.0408 19.4849C56.3125 19.1432 56.4491 18.7137 56.4247 18.2778C56.4003 17.842 56.2166 17.4304 55.9085 17.1212V17.1257Z" fill="#3C3D46"/>
<path fill-rule="evenodd" clip-rule="evenodd" d="M-0.00779786 36.5011C-0.0030276 31.1886 1.16118 25.9411 3.40354 21.1251C5.6459 16.309 8.91239 12.0404 12.975 8.61719C17.0375 5.19401 21.7983 2.69876 26.9249 1.30563C32.0515 -0.0874907 37.4203 -0.344915 42.6567 0.551331C47.893 1.44758 52.8707 3.47589 57.2421 6.49469C61.6136 9.51348 65.2735 13.45 67.9663 18.0294C70.6592 22.6089 72.3201 27.7208 72.8331 33.0085C73.3462 38.2962 72.6989 43.6321 70.9366 48.6438C68.9197 54.3615 62.5175 55.9541 57.5573 54.3478C51.5977 52.4176 43.2287 50.1907 36.498 50.1907C29.7718 50.1907 21.3937 52.4176 15.4387 54.3478C10.4785 55.9541 4.07629 54.3615 2.05934 48.6438C0.687493 44.7425 -0.0115017 40.6365 -0.00779786 36.5011ZM36.498 4.55852C31.3889 4.5572 26.354 5.78144 21.8159 8.12848C17.2778 10.4755 13.3688 13.8769 10.4172 18.0471C7.46553 22.2173 5.55726 27.0347 4.85252 32.095C4.14779 37.1553 4.66715 42.3108 6.36702 47.1288C7.29336 49.7527 10.5789 51.1262 14.0332 50.0036C20.0567 48.0597 29.0052 45.6275 36.498 45.6275C43.9908 45.6275 52.9438 48.0551 58.9627 50.0082C62.4171 51.1262 65.7026 49.7527 66.6289 47.1288C68.3288 42.3108 68.8482 37.1553 68.1434 32.095C67.4387 27.0347 65.5304 22.2173 62.5788 18.0471C59.6271 13.8769 55.7182 10.4755 51.1801 8.12848C46.642 5.78144 41.6071 4.5572 36.498 4.55852Z" fill="#3C3D46"/>
</svg>
