<svg width="72" height="59" viewBox="0 0 72 59" fill="none" xmlns="http://www.w3.org/2000/svg">
<path d="M60.391 47.8006C60.391 50.0011 59.5169 52.1114 57.961 53.6673C56.405 55.2233 54.2947 56.0974 52.0943 56.0974C49.8938 56.0974 47.7835 55.2233 46.2276 53.6673C44.6716 52.1114 43.7975 50.0011 43.7975 47.8006C43.7975 45.6002 44.6716 43.4899 46.2276 41.9339C47.7835 40.378 49.8938 39.5038 52.0943 39.5038C54.2947 39.5038 56.405 40.378 57.961 41.9339C59.5169 43.4899 60.391 45.6002 60.391 47.8006ZM27.2039 47.8006C27.2039 50.0011 26.3298 52.1114 24.7739 53.6673C23.2179 55.2233 21.1076 56.0974 18.9072 56.0974C16.7067 56.0974 14.5964 55.2233 13.0405 53.6673C11.4845 52.1114 10.6104 50.0011 10.6104 47.8006C10.6104 45.6002 11.4845 43.4899 13.0405 41.9339C14.5964 40.378 16.7067 39.5038 18.9072 39.5038C21.1076 39.5038 23.2179 40.378 24.7739 41.9339C26.3298 43.4899 27.2039 45.6002 27.2039 47.8006Z" stroke="#FF8A00" stroke-width="4.64619" stroke-linecap="round" stroke-linejoin="round"/>
<path d="M43.7974 47.8006H27.2038M60.3909 47.8006H62.9231C63.6532 47.8006 64.0183 47.8006 64.3236 47.7608C65.4222 47.624 66.4439 47.1248 67.2271 46.3422C68.0103 45.5597 68.5102 44.5384 68.6479 43.4398C68.6877 43.1312 68.6877 42.7661 68.6877 42.036V32.8664C68.6877 27.1453 66.415 21.6584 62.3695 17.613C58.324 13.5675 52.8372 11.2948 47.1161 11.2948M2.31354 2.99805H35.5006C40.1933 2.99805 42.5396 2.99805 43.9965 4.45828C45.4567 5.91187 45.4567 8.2582 45.4567 12.9542V41.1632M2.31354 32.0367V39.5038C2.31354 42.6068 2.31354 44.1567 2.9806 45.3116C3.4175 46.0683 4.04587 46.6966 4.80257 47.1335C5.95748 47.8006 7.50731 47.8006 10.6103 47.8006M2.31354 12.9542H22.2258M2.31354 22.9103H15.5884" stroke="#FF8A00" stroke-width="4.64619" stroke-linecap="round" stroke-linejoin="round"/>
</svg>
