<svg width="67" height="62" viewBox="0 0 67 62" fill="none" xmlns="http://www.w3.org/2000/svg">
<path d="M64.163 24.4379H61.9731V11.3528C61.9731 10.7744 61.7424 10.2197 61.3317 9.81067C60.921 9.40168 60.3639 9.17191 59.7831 9.17191H7.22427C6.70572 9.18033 6.20099 9.00521 5.79995 8.67773C5.39892 8.35025 5.1276 7.89166 5.03432 7.38361V6.5985C5.1276 6.09045 5.39892 5.63186 5.79995 5.30438C6.20099 4.9769 6.70572 4.80178 7.22427 4.8102H58.8633C59.4442 4.8102 60.0012 4.58043 60.4119 4.17144C60.8226 3.76245 61.0533 3.20774 61.0533 2.62934C61.0533 2.05094 60.8226 1.49623 60.4119 1.08724C60.0012 0.678255 59.4442 0.448486 58.8633 0.448486H7.22427C5.48184 0.448486 3.81077 1.13779 2.57868 2.36476C1.34659 3.59173 0.654415 5.25586 0.654415 6.99106C0.638633 7.25252 0.638633 7.5147 0.654415 7.77616V52.6364C0.663011 53.8106 0.903776 54.9716 1.36296 56.0532C1.82215 57.1348 2.49077 58.1157 3.33063 58.9399C4.1705 59.7641 5.16517 60.4155 6.25784 60.8569C7.35051 61.2983 8.5198 61.5211 9.69892 61.5125H59.7831C60.3639 61.5125 60.921 61.2827 61.3317 60.8737C61.7424 60.4647 61.9731 59.91 61.9731 59.3316V46.2465H64.163C64.7438 46.2465 65.3009 46.0167 65.7116 45.6077C66.1223 45.1987 66.353 44.644 66.353 44.0656V26.6188C66.353 26.0404 66.1223 25.4857 65.7116 25.0767C65.3009 24.6677 64.7438 24.4379 64.163 24.4379ZM57.5932 57.1507H9.69892C8.48087 57.1625 7.30744 56.6947 6.4339 55.8493C5.56035 55.0039 5.05735 53.8492 5.03432 52.6364V13.2719C5.7451 13.4775 6.48484 13.5659 7.22427 13.5336H57.5932V24.4379H42.2635C39.3594 24.4379 36.5743 25.5867 34.5209 27.6317C32.4674 29.6766 31.3137 32.4502 31.3137 35.3422C31.3137 38.2342 32.4674 41.0077 34.5209 43.0527C36.5743 45.0976 39.3594 46.2465 42.2635 46.2465H57.5932V57.1507ZM61.9731 41.8848H42.2635C40.5211 41.8848 38.85 41.1954 37.6179 39.9685C36.3858 38.7415 35.6936 37.0774 35.6936 35.3422C35.6936 33.607 36.3858 31.9429 37.6179 30.7159C38.85 29.4889 40.5211 28.7996 42.2635 28.7996H61.9731V41.8848Z" fill="#3C3D46"/>
<path d="M44.4496 38.2818C46.2824 38.2818 47.7683 36.9445 47.7683 35.2949C47.7683 33.6454 46.2824 32.3081 44.4496 32.3081C42.6167 32.3081 41.1309 33.6454 41.1309 35.2949C41.1309 36.9445 42.6167 38.2818 44.4496 38.2818Z" fill="#3C3D46"/>
</svg>
