<svg width="64" height="73" viewBox="0 0 64 73" fill="none" xmlns="http://www.w3.org/2000/svg">
<path d="M32.4859 72.3173C31.9648 72.5194 31.3875 72.5194 30.8664 72.3173H32.4859ZM32.4859 72.3173C52.7883 64.4632 63.1667 51.6217 63.1667 34.0324V13.6849L32.4859 72.3173ZM29.1439 40.1602L29.4267 40.4447L29.7096 40.1602L46.1117 23.6698C46.1117 23.6698 46.1117 23.6698 46.1117 23.6697C46.4594 23.3203 46.9306 23.1243 47.4214 23.1243C47.9122 23.1243 48.3834 23.3203 48.7311 23.6698C49.0789 24.0193 49.2746 24.4939 49.2746 24.9891C49.2746 25.4843 49.0789 25.9588 48.7311 26.3084L30.7365 44.395L30.7361 44.3954C30.5642 44.5687 30.36 44.7061 30.1353 44.7998C29.9107 44.8935 29.6699 44.9417 29.4268 44.9417C29.1837 44.9417 28.9429 44.8935 28.7183 44.7998C28.4936 44.7061 28.2894 44.5687 28.1174 44.3954L28.1171 44.395L19.1198 35.3517C18.9476 35.1786 18.8109 34.9731 18.7176 34.7467C18.6243 34.5203 18.5762 34.2776 18.5762 34.0324C18.5762 33.7872 18.6243 33.5445 18.7176 33.3181C18.8109 33.0917 18.9476 32.8862 19.1198 32.7131C19.2919 32.54 19.4962 32.4029 19.7209 32.3093C19.9456 32.2158 20.1864 32.1677 20.4295 32.1677C20.6726 32.1677 20.9133 32.2158 21.138 32.3093C21.3627 32.4029 21.567 32.54 21.7392 32.7131L29.1439 40.1602ZM0.58448 13.6849V13.6849C0.58442 13.2362 0.745326 12.803 1.03721 12.4644C1.32905 12.126 1.73217 11.905 2.1724 11.8415C12.3724 10.3837 22.1102 6.61883 30.6528 0.830676C30.9562 0.628017 31.3122 0.520026 31.6761 0.520026C32.0401 0.520026 32.3961 0.628044 32.6996 0.830751C41.2409 6.61831 50.9772 10.3831 61.1758 11.8416L61.1761 11.8417C61.617 11.9043 62.021 12.1249 62.3136 12.4635C62.6062 12.802 62.7677 13.2358 62.7677 13.6849C62.7677 13.6849 62.7677 13.685 62.7677 13.685V34.0324C62.7677 42.7425 60.2003 50.2605 55.1286 56.5758C50.0524 62.8966 42.4486 68.0355 32.3419 71.9453L32.3416 71.9454C31.9133 72.1115 31.4389 72.1115 31.0106 71.9454L31.0103 71.9453C20.9036 68.0354 13.2998 62.8977 8.22358 56.5774C3.15191 50.2628 0.58448 42.7448 0.58448 34.0324V13.6849ZM4.6171 15.2269L4.28527 15.2836V15.6202V34.0324C4.28527 41.7864 6.52484 48.5036 11.0664 54.1941C15.603 59.8784 22.4168 64.5139 31.5283 68.1481L31.6761 68.2071L31.8239 68.1481C40.9355 64.5139 47.7493 59.8772 52.2858 54.1924C56.8274 48.5013 59.067 41.7841 59.067 34.0324V15.6202V15.2836L58.7351 15.2269C49.8745 13.7152 41.3764 10.5397 33.685 5.86653C33.6842 5.86607 33.6835 5.86561 33.6827 5.86516L31.8877 4.742L31.6761 4.6096L31.4645 4.742L29.6672 5.86653C21.9758 10.5397 13.4777 13.7152 4.6171 15.2269Z" fill="#3C3D46" stroke="#3C3D46" stroke-width="0.797865"/>
</svg>
